# xmcd
#
# Track frame offsets:
#	150
#	28889
#	45566
#	85154
#
# Disc length: 1407 seconds
#
# Revision: 1
# Processed by: cddbd v1.5.1PL0 Copyright (c) Steve Scherf et al.
# Submitted via: CDex 1.50Beta5
#
DISCID=29057d04
DTITLE=佐井好子 - 青いガラス玉
DYEAR=2003
DGENRE=World
TTITLE0=暗い旅
TTITLE1=ふりむかないで
TTITLE2=海へ
TTITLE3=赤い靴
EXTD=
EXTT0=
EXTT1=
EXTT2=
EXTT3=
PLAYORDER=
